<mxfile host="app.diagrams.net" modified="2024-08-28T01:40:03.316Z" agent="Mozilla/5.0 (Windows NT 10.0; Win64; x64) AppleWebKit/537.36 (KHTML, like Gecko) Chrome/123.0.0.0 Safari/537.36 OPR/109.0.0.0" version="24.4.9" etag="JS1nXeXn0QiFdM0Df7qh" type="github">
  <diagram name="PÃ¡gina-1" id="fPy4MenfULXkOpXitN81">
    <mxGraphModel>
      <root>
        <mxCell id="0" />
        <mxCell id="1" parent="0" />
      </root>
    </mxGraphModel>
  </diagram>
</mxfile>
